<svg width="14" height="9" viewBox="0 0 14 9" fill="none" xmlns="http://www.w3.org/2000/svg">
<path d="M1.19268 0C1.05664 0 0.927525 0.0285753 0.808655 0.0757219L6.74743 5.23563C6.958 5.41859 7.20803 5.4184 7.41811 5.23563L13.346 0.0757219C13.2272 0.0285753 13.0981 0 12.962 0H1.19268ZM0.165028 0.892426C0.158451 0.939745 0.154297 0.9893 0.154297 1.03847V7.96161C0.154297 8.10364 0.184257 8.23878 0.235436 8.36186L4.34605 4.52168L0.165114 0.892426H0.165028ZM13.9897 0.892426L9.81957 4.52168L13.9194 8.36726C13.9718 8.24294 14.0005 8.10544 14.0005 7.96161V1.03847C14.0005 0.9893 13.9962 0.939745 13.9898 0.892426H13.9897ZM9.02989 5.20317L8.09959 6.01448C7.52069 6.51821 6.64486 6.51736 6.06592 6.01448L5.13562 5.20859L1.08451 8.99467C1.1195 8.99814 1.15673 9.00004 1.19268 9.00004H12.962C12.9962 9.00004 13.0315 8.99779 13.0648 8.99467L9.02989 5.20317Z" fill="black"/>
</svg>
