<svg width="13" height="13" viewBox="0 0 13 13" fill="none" xmlns="http://www.w3.org/2000/svg">
<path d="M9.29446 13C7.23809 12.9994 5.15185 11.9571 3.09491 9.90122C-1.27694 5.53214 0.10086 2.10315 0.626012 1.1556C1.04142 0.413059 2.3227 0.119605 3.05125 0.00819557C3.36208 -0.0388949 3.67292 0.120179 3.81771 0.402148L5.32824 3.34301C5.47476 3.6267 5.4196 3.97471 5.19322 4.20097L3.71429 5.67915C3.91367 6.14431 4.54396 7.03272 5.2231 7.7741C5.96371 8.45175 6.85314 9.08288 7.31968 9.28215L8.79803 7.80454C9.02499 7.5777 9.37202 7.52257 9.65758 7.66959L12.5999 9.17878C12.8803 9.3235 13.0389 9.63245 12.9918 9.94486C12.882 10.673 12.5879 11.9548 11.8449 12.3671C11.1009 12.7818 10.2195 13 9.29446 13Z" fill="black"/>
</svg>
