<svg width="12" height="16" viewBox="0 0 12 16" fill="none" xmlns="http://www.w3.org/2000/svg">
<path d="M12 13.1126C11.9474 9.4209 11.4561 8.37608 7.73684 7.71436C7.73684 7.71436 7.21053 8.37608 6 8.37608C4.78947 8.37608 4.26316 7.71436 4.26316 7.71436C0.596492 8.37608 0.0701738 9.40349 0.0175423 12.9907C0.0175423 13.2868 0.0175439 13.3042 0 13.2693C0 13.339 0 13.4435 0 13.6524C0 13.6524 0.877192 15.4286 6 15.4286C11.1228 15.4286 12 13.6524 12 13.6524C12 13.5131 12 13.4261 12 13.3738C12 13.3912 12 13.3564 12 13.1126Z" fill="black"/>
<path d="M9.19672 3.92728C9.19672 3.90974 9.19672 3.87468 9.19672 3.85714C9.19672 1.71818 8.72075 0 6.00598 0C3.27357 0 2.81523 1.73571 2.81523 3.85714C2.81523 3.89221 2.81523 3.90974 2.81523 3.92728C2.62132 4.08507 2.51555 4.43571 2.60369 4.82143C2.69183 5.17208 2.88574 5.43507 3.11491 5.52273C3.62614 6.82013 4.7191 7.71429 5.98835 7.71429C7.25759 7.71429 8.35056 6.82013 8.86178 5.52273C9.09095 5.43507 9.30249 5.17208 9.37301 4.82143C9.49641 4.45325 9.40826 4.08507 9.19672 3.92728Z" fill="black"/>
</svg>
